<?xml version="1.0" encoding="utf-8"?>
<!-- Generator: Adobe Illustrator 26.0.0, SVG Export Plug-In . SVG Version: 6.00 Build 0)  -->
<svg version="1.1" id="Layer_1" xmlns="http://www.w3.org/2000/svg" xmlns:xlink="http://www.w3.org/1999/xlink" x="0px" y="0px"
	 viewBox="0 0 47.2 44" style="enable-background:new 0 0 47.2 44;" xml:space="preserve">
<style type="text/css">
	.st0{fill:#FFFFFF;}
</style>
<g>
	<path class="st0" d="M6.6,40.8c-8.8-8.7-8.8-23,0-31.7s23.2-8.7,31.9,0s8.8,23,0,31.7l0,0l-4-4l0,0c6.6-6.5,6.6-17.2,0-23.7
		s-17.3-6.5-23.9,0s-6.6,17.2,0,23.7L6.6,40.8z"/>
	<path class="st0" d="M32.8,15.2c5.6,5.6,5.6,14.7,0,20.3C27.2,41,18,41,12.4,35.5s-5.6-14.7,0-20.3l0,0l2.6,2.6l0,0
		c-4.2,4.2-4.2,11,0,15.2s11.1,4.2,15.3,0s4.2-11,0-15.2L32.8,15.2z"/>
	<path class="st0" d="M22.6,25.8l-5.4,5.4c-1.4-1.4-2.2-3.4-2.2-5.4c0-4.2,3.4-7.6,7.6-7.6s7.6,3.4,7.6,7.6c0,2-0.8,4-2.2,5.4
		L22.6,25.8z"/>
</g>
</svg>
