<?xml version="1.0" encoding="utf-8"?>
<!-- Generator: Adobe Illustrator 26.0.0, SVG Export Plug-In . SVG Version: 6.00 Build 0)  -->
<svg version="1.1" id="Layer_1" xmlns="http://www.w3.org/2000/svg" xmlns:xlink="http://www.w3.org/1999/xlink" x="0px" y="0px"
	 viewBox="0 0 2560 1440" style="enable-background:new 0 0 2560 1440;" xml:space="preserve">
<g>
	<path d="M1074.65,643.81c-9.86-9.86-9.86-26.09,0-35.95c9.86-9.86,26.09-9.86,35.95,0c9.86,9.86,9.86,26.09,0,35.95l-0.05,0.05
		l-4.52-4.55l0.04-0.04c7.42-7.42,7.42-19.46,0-26.88c-7.42-7.42-19.46-7.42-26.88,0c-7.42,7.42-7.42,19.46,0,26.88L1074.65,643.81z
		"/>
	<path d="M1104.14,614.78c6.31,6.31,6.31,16.7,0,23.02c-6.31,6.31-16.7,6.31-23.02,0s-6.31-16.7,0-23.02l0.03-0.03l2.9,2.91
		l-0.02,0.02c-4.75,4.75-4.75,12.46,0,17.21c4.75,4.75,12.46,4.75,17.21,0c4.75-4.75,4.75-12.46,0-17.21L1104.14,614.78z"/>
	<path d="M1092.63,626.83l-6.07,6.07c-1.61-1.61-2.52-3.8-2.52-6.07c0-4.71,3.88-8.59,8.59-8.59c4.71,0,8.59,3.88,8.59,8.59
		c0,2.29-0.91,4.48-2.53,6.09L1092.63,626.83z"/>
</g>
</svg>
