<?xml version="1.0" encoding="utf-8"?>
<!-- Generator: Adobe Illustrator 26.0.0, SVG Export Plug-In . SVG Version: 6.00 Build 0)  -->
<svg version="1.1" id="Layer_1" xmlns="http://www.w3.org/2000/svg" xmlns:xlink="http://www.w3.org/1999/xlink" x="0px" y="0px"
	 viewBox="0 0 44 44" style="enable-background:new 0 0 44 44;" xml:space="preserve">
<style type="text/css">
	.st0{fill:#FFFFFF;}
</style>
<g>
	<path class="st0" d="M6.4,40.8c-8.6-8.6-8.6-22.6,0-31.2S29,1,37.6,9.6s8.6,22.6,0,31.2l0,0l-3.9-3.9l0,0c6.4-6.4,6.4-16.9,0-23.3
		s-16.9-6.4-23.3,0s-6.4,16.9,0,23.3L6.4,40.8z"/>
	<path class="st0" d="M32,15.6c5.5,5.5,5.5,14.5,0,20c-5.5,5.5-14.5,5.5-20,0s-5.5-14.5,0-20l0,0l2.5,2.5l0,0
		c-4.1,4.1-4.1,10.8,0,14.9s10.8,4.1,14.9,0s4.1-10.8,0-14.9L32,15.6z"/>
	<path class="st0" d="M22,26l-5.3,5.3c-1.4-1.4-2.2-3.3-2.2-5.3c0-4.1,3.4-7.4,7.4-7.4s7.4,3.4,7.4,7.4c0,2-0.8,3.9-2.2,5.3L22,26z"
		/>
</g>
</svg>
