<svg xmlns="http://www.w3.org/2000/svg" viewBox="0 0 30 30">
  <path d="M15,24c4.963,0,9-4.038,9-9s-4.037-9-9-9c-1.064,0-2.081,0.195-3.029,0.536C11.979,6.634,12,6.729,12,6.828v0.929l0.655,0.655C13.39,8.15,14.177,8,15,8c3.859,0,7,3.14,7,7s-3.141,7-7,7s-7-3.14-7-7c0-0.823,0.15-1.61,0.413-2.345L7.758,12H6.828c-0.099,0-0.195-0.021-0.293-0.029C6.195,12.919,6,13.936,6,15C6,19.962,10.037,24,15,24z" fill="#FFFFFF" />
  <path d="M15,2c-1.817,0-3.546,0.378-5.118,1.054L10.828,4c0.196,0.196,0.367,0.411,0.516,0.638C12.49,4.232,13.717,4,15,4c6.065,0,11,4.935,11,11s-4.935,11-11,11S4,21.065,4,15c0-1.283,0.232-2.51,0.638-3.655C4.411,11.196,4.196,11.025,4,10.828L3.054,9.882C2.378,11.454,2,13.183,2,15c0,7.168,5.832,13,13,13s13-5.832,13-13S22.168,2,15,2z" fill="#FFFFFF" />
  <path d="M15,20c2.757,0,5-2.243,5-5s-2.243-5-5-5c-0.236,0-0.461,0.038-0.688,0.07l2.809,2.809L17.12,12.88C17.664,13.423,18,14.173,18,15c0,1.654-1.346,3-3,3c-0.827,0-1.577-0.336-2.12-0.88l-0.001,0.001l-2.809-2.809C10.038,14.539,10,14.764,10,15C10,17.757,12.243,20,15,20z" fill="#FFFFFF" />
  <path fill="none" stroke="#FFFFFF" stroke-linecap="round" stroke-linejoin="round" stroke-width="2" d="M15 15L4 4" />
  <path d="M6,6V3.715c0-0.633,0.765-0.95,1.213-0.502l2.201,2.201C9.789,5.789,10,6.298,10,6.828V10L6,6z" fill="#FFFFFF" />
  <path d="M6,6H3.715c-0.633,0-0.95,0.765-0.502,1.213l2.201,2.201C5.789,9.789,6.298,10,6.828,10H10L6,6z" fill="#FFFFFF" />
</svg>